<svg width="34" height="31" viewBox="0 0 34 31" fill="none" xmlns="http://www.w3.org/2000/svg">
<ellipse cx="17" cy="15.5" rx="17" ry="15.5" fill="#EEEEEE" fill-opacity="0.84"/>
<path d="M13.6172 10.498C10.2285 10.498 8.35352 12.8711 8.35352 15.3613C8.35352 18.1055 10.4629 20.2246 13.4316 20.2246C16.2539 20.2246 18.5977 18.3398 18.5977 15.2441C18.5977 12.4316 16.332 10.498 13.627 10.498H13.6172ZM13.3438 11.1133C15.1016 11.1133 16.3809 12.793 16.3809 15.6445C16.3809 18.2812 15.1504 19.5996 13.7148 19.5996C11.7715 19.5996 10.5703 17.5488 10.5703 15.1074C10.5703 12.5781 11.8301 11.1133 13.334 11.1133H13.3438ZM23.666 16.2402H20.0527L19.8477 17.2559H23.4609L23.666 16.2402Z" fill="black"/>
</svg>
