<svg width="34" height="31" viewBox="0 0 34 31" fill="none" xmlns="http://www.w3.org/2000/svg">
<ellipse cx="17" cy="15.5" rx="17" ry="15.5" fill="#EEEEEE" fill-opacity="0.84"/>
<path d="M13.1523 18V17.4922C12.2148 17.375 12.0195 17.1797 11.5312 15.9199C10.5742 13.4785 9.66602 10.9883 8.72852 8.49805L7.97656 8.68359L4.97852 15.9688C4.48047 17.1992 4.32422 17.375 3.32812 17.4922L3.30859 18H6.58008V17.4922C5.51562 17.3555 5.48633 17.1504 5.70117 16.4961C5.86719 15.9199 6.07227 15.3926 6.23828 14.9238H9.07031C9.31445 15.5391 9.53906 16.1543 9.68555 16.5742C9.90039 17.1797 9.8418 17.3457 8.97266 17.4922V18H13.1523ZM8.79688 14.1621H6.49219C6.86328 13.1465 7.25391 12.1113 7.66406 11.0859H7.70312L8.79688 14.1621ZM19.2949 12.9609C20.3496 12.7656 21.5898 12.2285 21.5898 10.8418C21.5898 10.1387 21.2578 9.55273 20.7207 9.21094C20.1641 8.84961 19.4414 8.71289 18.3281 8.71289H14.0605V9.2207C15.0859 9.31836 15.2324 9.40625 15.2324 10.627V16.0762C15.2324 17.3066 15.0859 17.3848 13.9629 17.4922V18H17.6934C18.9141 18 20.0176 17.7852 20.75 17.3848C21.5898 16.9453 22.1172 16.1934 22.1172 15.2559C22.1172 13.8887 21.0039 13.2246 19.2949 13.0391V12.9609ZM17.1367 12.8047V10.1094C17.1367 9.81641 17.166 9.61133 17.2637 9.50391C17.3516 9.42578 17.6055 9.31836 17.9277 9.31836C18.7285 9.31836 19.5098 9.80664 19.5098 11.1055C19.5098 12.2676 18.8652 12.8047 17.459 12.8047H17.1367ZM17.1367 13.3906H17.4199C19.1094 13.3906 19.9688 14.0742 19.9688 15.4121C19.9688 16.7891 19.041 17.375 18.2305 17.3848C17.4297 17.4043 17.1367 17.1016 17.1367 16.0371V13.3906ZM30.3203 14.8555V13.918H27.4199V11.0859H26.3555V13.918H23.4355V14.8555H26.3555V18H27.4199V14.8555H30.3203Z" fill="black"/>
</svg>
