<svg width="33" height="31" viewBox="0 0 33 31" fill="none" xmlns="http://www.w3.org/2000/svg">
<ellipse cx="16.5" cy="15.5" rx="16.5" ry="15.5" fill="#EEEEEE" fill-opacity="0.84"/>
<path d="M13.5352 8.49805C10.1465 8.49805 8.27148 10.8711 8.27148 13.3613C8.27148 16.1055 10.3809 18.2246 13.3496 18.2246C16.1719 18.2246 18.5156 16.3398 18.5156 13.2441C18.5156 10.4316 16.25 8.49805 13.5449 8.49805H13.5352ZM13.2617 9.11328C15.0195 9.11328 16.2988 10.793 16.2988 13.6445C16.2988 16.2812 15.0684 17.5996 13.6328 17.5996C11.6895 17.5996 10.4883 15.5488 10.4883 13.1074C10.4883 10.5781 11.748 9.11328 13.252 9.11328H13.2617ZM26.6992 14.8555V13.918H23.7988V11.0859H22.7344V13.918H19.8145V14.8555H22.7344V18H23.7988V14.8555H26.6992Z" fill="black"/>
</svg>
