<svg width="33" height="32" viewBox="0 0 33 32" fill="none" xmlns="http://www.w3.org/2000/svg">
<ellipse cx="16.5" cy="16" rx="16.5" ry="16" fill="#EEEEEE" fill-opacity="0.84"/>
<path d="M15.6719 12.9609C16.7266 12.7656 17.9668 12.2285 17.9668 10.8418C17.9668 10.1387 17.6348 9.55273 17.0977 9.21094C16.541 8.84961 15.8184 8.71289 14.7051 8.71289H10.4375V9.2207C11.4629 9.31836 11.6094 9.40625 11.6094 10.627V16.0762C11.6094 17.3066 11.4629 17.3848 10.3398 17.4922V18H14.0703C15.291 18 16.3945 17.7852 17.127 17.3848C17.9668 16.9453 18.4941 16.1934 18.4941 15.2559C18.4941 13.8887 17.3809 13.2246 15.6719 13.0391V12.9609ZM13.5137 12.8047V10.1094C13.5137 9.81641 13.543 9.61133 13.6406 9.50391C13.7285 9.42578 13.9824 9.31836 14.3047 9.31836C15.1055 9.31836 15.8867 9.80664 15.8867 11.1055C15.8867 12.2676 15.2422 12.8047 13.8359 12.8047H13.5137ZM13.5137 13.3906H13.7969C15.4863 13.3906 16.3457 14.0742 16.3457 15.4121C16.3457 16.7891 15.418 17.375 14.6074 17.3848C13.8066 17.4043 13.5137 17.1016 13.5137 16.0371V13.3906ZM23.582 14.2402H19.9688L19.7637 15.2559H23.377L23.582 14.2402Z" fill="black"/>
</svg>
