<svg width="33" height="31" viewBox="0 0 33 31" fill="none" xmlns="http://www.w3.org/2000/svg">
<ellipse cx="16.5" cy="15.5" rx="16.5" ry="15.5" fill="#EEEEEE" fill-opacity="0.84"/>
<path d="M14.7344 19V18.4922C13.7969 18.375 13.6016 18.1797 13.1133 16.9199C12.1562 14.4785 11.248 11.9883 10.3105 9.49805L9.55859 9.68359L6.56055 16.9688C6.0625 18.1992 5.90625 18.375 4.91016 18.4922L4.89062 19H8.16211V18.4922C7.09766 18.3555 7.06836 18.1504 7.2832 17.4961C7.44922 16.9199 7.6543 16.3926 7.82031 15.9238H10.6523C10.8965 16.5391 11.1211 17.1543 11.2676 17.5742C11.4824 18.1797 11.4238 18.3457 10.5547 18.4922V19H14.7344ZM10.3789 15.1621H8.07422C8.44531 14.1465 8.83594 13.1113 9.24609 12.0859H9.28516L10.3789 15.1621ZM20.877 13.9609C21.9316 13.7656 23.1719 13.2285 23.1719 11.8418C23.1719 11.1387 22.8398 10.5527 22.3027 10.2109C21.7461 9.84961 21.0234 9.71289 19.9102 9.71289H15.6426V10.2207C16.668 10.3184 16.8145 10.4062 16.8145 11.627V17.0762C16.8145 18.3066 16.668 18.3848 15.5449 18.4922V19H19.2754C20.4961 19 21.5996 18.7852 22.332 18.3848C23.1719 17.9453 23.6992 17.1934 23.6992 16.2559C23.6992 14.8887 22.5859 14.2246 20.877 14.0391V13.9609ZM18.7188 13.8047V11.1094C18.7188 10.8164 18.748 10.6113 18.8457 10.5039C18.9336 10.4258 19.1875 10.3184 19.5098 10.3184C20.3105 10.3184 21.0918 10.8066 21.0918 12.1055C21.0918 13.2676 20.4473 13.8047 19.041 13.8047H18.7188ZM18.7188 14.3906H19.002C20.6914 14.3906 21.5508 15.0742 21.5508 16.4121C21.5508 17.7891 20.623 18.375 19.8125 18.3848C19.0117 18.4043 18.7188 18.1016 18.7188 17.0371V14.3906ZM28.7871 15.2402H25.1738L24.9688 16.2559H28.582L28.7871 15.2402Z" fill="black"/>
</svg>
