<svg width="34" height="32" viewBox="0 0 34 32" fill="none" xmlns="http://www.w3.org/2000/svg">
<ellipse cx="17" cy="16" rx="17" ry="16" fill="#EEEEEE"/>
<path d="M13.0898 12.9609C14.1445 12.7656 15.3848 12.2285 15.3848 10.8418C15.3848 10.1387 15.0527 9.55273 14.5156 9.21094C13.959 8.84961 13.2363 8.71289 12.123 8.71289H7.85547V9.2207C8.88086 9.31836 9.02734 9.40625 9.02734 10.627V16.0762C9.02734 17.3066 8.88086 17.3848 7.75781 17.4922V18H11.4883C12.709 18 13.8125 17.7852 14.5449 17.3848C15.3848 16.9453 15.9121 16.1934 15.9121 15.2559C15.9121 13.8887 14.7988 13.2246 13.0898 13.0391V12.9609ZM10.9316 12.8047V10.1094C10.9316 9.81641 10.9609 9.61133 11.0586 9.50391C11.1465 9.42578 11.4004 9.31836 11.7227 9.31836C12.5234 9.31836 13.3047 9.80664 13.3047 11.1055C13.3047 12.2676 12.6602 12.8047 11.2539 12.8047H10.9316ZM10.9316 13.3906H11.2148C12.9043 13.3906 13.7637 14.0742 13.7637 15.4121C13.7637 16.7891 12.8359 17.375 12.0254 17.3848C11.2246 17.4043 10.9316 17.1016 10.9316 16.0371V13.3906ZM24.1152 14.8555V13.918H21.2148V11.0859H20.1504V13.918H17.2305V14.8555H20.1504V18H21.2148V14.8555H24.1152Z" fill="black"/>
</svg>
