<svg width="33" height="32" viewBox="0 0 33 32" fill="none" xmlns="http://www.w3.org/2000/svg">
<ellipse cx="16.5" cy="16" rx="16.5" ry="16" fill="#EEEEEE"/>
<path d="M18.3203 18V17.4922C17.3828 17.375 17.1875 17.1797 16.6992 15.9199C15.7422 13.4785 14.834 10.9883 13.8965 8.49805L13.1445 8.68359L10.1465 15.9688C9.64844 17.1992 9.49219 17.375 8.49609 17.4922L8.47656 18H11.748V17.4922C10.6836 17.3555 10.6543 17.1504 10.8691 16.4961C11.0352 15.9199 11.2402 15.3926 11.4062 14.9238H14.2383C14.4824 15.5391 14.707 16.1543 14.8535 16.5742C15.0684 17.1797 15.0098 17.3457 14.1406 17.4922V18H18.3203ZM13.9648 14.1621H11.6602C12.0312 13.1465 12.4219 12.1113 12.832 11.0859H12.8711L13.9648 14.1621ZM26.1523 14.8555V13.918H23.252V11.0859H22.1875V13.918H19.2676V14.8555H22.1875V18H23.252V14.8555H26.1523Z" fill="black"/>
</svg>
