<svg width="34" height="32" viewBox="0 0 34 32" fill="none" xmlns="http://www.w3.org/2000/svg">
<ellipse cx="17" cy="16" rx="17" ry="16" fill="#EEEEEE" fill-opacity="0.84"/>
<path d="M17.6172 20V19.4922C16.6797 19.375 16.4844 19.1797 15.9961 17.9199C15.0391 15.4785 14.1309 12.9883 13.1934 10.498L12.4414 10.6836L9.44336 17.9688C8.94531 19.1992 8.78906 19.375 7.79297 19.4922L7.77344 20H11.0449V19.4922C9.98047 19.3555 9.95117 19.1504 10.166 18.4961C10.332 17.9199 10.5371 17.3926 10.7031 16.9238H13.5352C13.7793 17.5391 14.0039 18.1543 14.1504 18.5742C14.3652 19.1797 14.3066 19.3457 13.4375 19.4922V20H17.6172ZM13.2617 16.1621H10.957C11.3281 15.1465 11.7188 14.1113 12.1289 13.0859H12.168L13.2617 16.1621ZM21.9043 16.2402H18.291L18.0859 17.2559H21.6992L21.9043 16.2402Z" fill="black"/>
</svg>
