<svg width="37" height="35" viewBox="0 0 37 35" fill="none" xmlns="http://www.w3.org/2000/svg">
<g clip-path="url(#clip0)">
<path d="M18.5 35C8.29921 35 0 27.1494 0 17.5C0 7.85061 8.29921 0 18.5 0C28.7008 0 37 7.85061 37 17.5C37 27.1494 28.7008 35 18.5 35ZM18.5 1.06061C8.917 1.06061 1.12121 8.435 1.12121 17.5C1.12121 26.565 8.917 33.9394 18.5 33.9394C28.083 33.9394 35.8788 26.565 35.8788 17.5C35.8788 8.435 28.083 1.06061 18.5 1.06061Z" fill="black"/>
<path d="M18.5 35C14.6486 35 10.9475 33.8779 7.79355 31.7545C7.62537 31.6411 7.53567 31.447 7.56258 31.2529C7.58949 31.0588 7.72852 30.8933 7.92361 30.8255C12.5722 29.1974 13.3222 27.8759 13.3222 25.3432C13.3222 24.6739 13.163 24.4544 12.876 24.0556C12.4959 23.5317 11.9757 22.8136 11.6102 20.9385C11.5563 20.6691 11.5104 20.6479 11.2559 20.5312C10.5764 20.2215 9.95188 19.7761 9.78818 17.7439C9.78818 16.7597 10.147 16.2156 10.4441 15.9324C10.3791 15.5824 10.2725 14.9789 10.1728 14.3214C9.66485 11.3761 9.64243 7.76894 14.0219 6.09212C17.8385 4.62849 20.8848 5.42818 21.8412 6.38167C22.5184 6.40182 24.2653 6.5694 25.4807 7.90682C27.3509 9.9644 26.7555 14.6555 26.5514 15.9271C26.8497 16.2039 27.2118 16.7406 27.2118 17.7036C27.0481 19.7761 26.4236 20.2226 25.743 20.5312C25.4874 20.6479 25.4414 20.668 25.3887 20.9385C25.0232 22.8136 24.5041 23.5317 24.124 24.0556C23.8359 24.4533 23.6778 24.6739 23.6778 25.3432C23.6778 27.8759 24.4279 29.1974 29.0764 30.8255C29.2715 30.8933 29.4105 31.0577 29.4374 31.2529C29.4643 31.448 29.3746 31.6411 29.2065 31.7545C26.0525 33.8779 22.3514 35 18.5 35ZM9.32512 31.448C12.0855 33.0814 15.2362 33.9394 18.5 33.9394C21.7639 33.9394 24.9145 33.0814 27.6749 31.448C23.7798 29.9356 22.5565 28.4105 22.5565 25.3442C22.5565 24.3462 22.8682 23.9145 23.199 23.4574C23.5399 22.9865 23.9637 22.4011 24.2877 20.7465C24.4436 19.9468 24.9335 19.7241 25.2575 19.5767C25.6062 19.4186 25.965 19.2553 26.0917 17.6644C26.0906 16.8541 25.706 16.6335 25.6903 16.625C25.484 16.5126 25.3506 16.2761 25.3943 16.0555C25.6724 14.6459 26.1299 10.2497 24.6308 8.59834C23.6071 7.47197 21.9937 7.44121 21.6865 7.45288C21.6349 7.44864 21.5845 7.44758 21.5362 7.43591C21.3905 7.40091 21.1438 7.28106 21.0687 7.15803C20.7637 6.66379 18.1076 5.67 14.4423 7.07318C10.8197 8.46046 10.8119 11.4344 11.2816 14.1602C11.4364 15.1752 11.6057 16.0523 11.6068 16.0565C11.6528 16.2952 11.5216 16.5327 11.2895 16.6335C11.2929 16.6335 10.9094 16.8552 10.9094 17.7026C11.035 19.2521 11.3949 19.4165 11.7425 19.5745C12.0665 19.722 12.5576 19.9447 12.7134 20.7444C13.0363 22.3989 13.4602 22.9844 13.801 23.4553C14.1329 23.9124 14.4446 24.3441 14.4446 25.3421C14.4446 28.4115 13.2213 29.9367 9.32512 31.448Z" fill="black"/>
</g>
<defs>
<clipPath id="clip0">
<rect width="37" height="35" fill="white"/>
</clipPath>
</defs>
</svg>
