<svg width="36" height="35" viewBox="0 0 36 35" fill="none" xmlns="http://www.w3.org/2000/svg">
<g clip-path="url(#clip0)">
<path d="M18 35C8.07491 35 0 27.1494 0 17.5C0 7.85061 8.07491 0 18 0C27.9251 0 36 7.85061 36 17.5C36 27.1494 27.9251 35 18 35ZM18 1.06061C8.676 1.06061 1.09091 8.435 1.09091 17.5C1.09091 26.565 8.676 33.9394 18 33.9394C27.324 33.9394 34.9091 26.565 34.9091 17.5C34.9091 8.435 27.324 1.06061 18 1.06061Z" fill="black"/>
<path d="M18 35C13.7793 35 9.672 33.5449 6.43527 30.9018C6.29127 30.7852 6.22036 30.6038 6.24545 30.4224C6.27054 30.2411 6.39163 30.0862 6.56181 30.012C7.01236 29.8158 7.50763 29.6185 8.0629 29.4223C10.9331 28.4062 12.3491 27.5132 12.9578 26.2797C7.59272 24.9805 6.95999 21.7626 6.9349 21.6205C6.8989 21.4115 6.99272 21.2015 7.1749 21.0859C7.2829 21.017 9.85199 19.3052 9.85199 14.9227C9.85199 10.1574 10.8207 5.28712 18 5.28712C25.1793 5.28712 26.148 10.1585 26.148 14.9227C26.148 19.3052 28.7171 21.017 28.8273 21.088C29.0062 21.2036 29.1011 21.4147 29.0651 21.6205C29.04 21.7615 28.4062 24.9805 23.0422 26.2797C23.652 27.5132 25.0669 28.4052 27.936 29.4223C28.4913 29.6185 28.9876 29.8158 29.4371 30.013C29.6084 30.0883 29.7284 30.2432 29.7535 30.4235C29.7785 30.6038 29.7076 30.7852 29.5636 30.9029C26.3291 33.5449 22.2218 35 18 35ZM7.84472 30.6377C10.7651 32.7727 14.3378 33.9394 18 33.9394C21.6633 33.9394 25.236 32.7727 28.1553 30.6377C27.9665 30.5645 27.7691 30.4924 27.564 30.4192C23.9204 29.1285 22.3549 27.9438 21.7865 26.0464C21.744 25.9042 21.7647 25.7515 21.8433 25.6253C21.9218 25.498 22.0516 25.4089 22.2 25.3792C26.4393 24.5286 27.6054 22.4955 27.9 21.7308C27.084 21.0626 25.0582 18.9923 25.0582 14.9238C25.0582 9.77667 23.8582 6.34879 18.0011 6.34879C12.144 6.34879 10.944 9.77667 10.944 14.9238C10.944 18.9923 8.91709 21.0626 8.10218 21.7308C8.39454 22.4912 9.55854 24.5276 13.8011 25.3782C13.9505 25.4079 14.0804 25.497 14.1589 25.6232C14.2364 25.7505 14.2582 25.9032 14.2156 26.0442C13.6484 27.9417 12.0829 29.1274 8.43818 30.4182C8.2309 30.4924 8.03454 30.5645 7.84472 30.6377Z" fill="black"/>
</g>
<defs>
<clipPath id="clip0">
<rect width="36" height="35" fill="white"/>
</clipPath>
</defs>
</svg>
